<svg height="512" viewBox="0 0 512 512" width="512" xmlns="http://www.w3.org/2000/svg"><g id="solid"><path d="m297.708 221.733 5.508-6.259a16.851 16.851 0 0 0 -6.432-1.208 23.086 23.086 0 0 0 -4.591.481c-6.757 1.373-13.387 5.434-18.667 11.434a39.637 39.637 0 0 0 -4.928 6.973 35.138 35.138 0 0 1 15.841-4.905 19.188 19.188 0 0 0 13.269-6.516z"/><path d="m219.867 197.661a19.185 19.185 0 0 0 -6.707-13.173l-6.326-5.406a13.461 13.461 0 0 0 -3.445 2.833c-3.127 3.658-4.135 8.937-2.841 14.866 1.471 6.738 5.627 13.307 11.7 18.5 6.97 5.957 15.364 8.943 22.472 8.681l-2.591-2.215a35.073 35.073 0 0 1 -12.262-24.086z"/><path d="m184.916 200.193a39.532 39.532 0 0 1 -.916-7.662v52.469a19.021 19.021 0 0 0 19 19h49.244a35.037 35.037 0 0 1 -3.641-19.015 44.834 44.834 0 0 1 1.6-8.946 34.943 34.943 0 0 1 -16.414 3.881c-10.667 0-22.238-4.187-31.939-12.476-8.707-7.444-14.723-17.124-16.934-27.251z"/><path d="m242.525 209.583 6.34 5.418c3.32-8.472-1.086-20.943-11.137-29.533a39.56 39.56 0 0 0 -7.044-4.826 35.127 35.127 0 0 1 5.134 15.768 19.191 19.191 0 0 0 6.707 13.173z"/><path d="m215.969 80h16.4a13.245 13.245 0 0 0 2.639-1.8 13.5 13.5 0 0 0 2.789-3.491l-5.5-6.245a19.188 19.188 0 0 0 -13.269-6.516 35.082 35.082 0 0 1 -24.261-11.913l-2.235-2.541c-.157 7.152 2.987 15.5 8.988 22.322a36.95 36.95 0 0 0 14.449 10.184z"/><path d="m96 464h32v16h-32z"/><path d="m184 128v63.4a30.648 30.648 0 0 1 7.225-19.88c6.455-7.555 16.163-11.36 27.339-10.7 10.348.605 20.845 5.039 29.558 12.486 12.283 10.5 18.533 24.985 17.706 37.917a49.35 49.35 0 0 1 23.18-12.155c10.971-2.227 21.118.16 28.579 6.724s11.119 16.328 10.3 27.492c-.755 10.338-5.341 20.77-12.912 29.374-.158.178-.321.348-.48.525a19.031 19.031 0 0 0 13.505-18.183v-149h-161.87l16.73 27.884a8.009 8.009 0 0 1 1.14 4.116zm78.209-23.042c9.537-6.356 20.492-9.507 30.833-8.88 11.174.681 20.362 5.61 25.873 13.879 10.889 16.337 3.169 40.679-17.21 54.261a51.243 51.243 0 0 1 -28.149 8.885c-11.787 0-22.455-4.729-28.557-13.883-10.889-16.338-3.169-40.679 17.21-54.262z"/><path d="m220.054 45.98a35.149 35.149 0 0 1 15.838 4.9 39.6 39.6 0 0 0 -4.927-6.968c-5.278-6-11.9-10.062-18.664-11.435a18.967 18.967 0 0 0 -11.011.739l5.5 6.245a19.183 19.183 0 0 0 13.264 6.519z"/><path d="m272.324 154.958-2.837 1.891c7.027 1.106 15.716-.86 23.345-5.945 12.815-8.542 18.663-23.23 12.769-32.074a13.432 13.432 0 0 0 -3.084-3.223l-6.925 4.615a19.185 19.185 0 0 0 -8.226 12.281 35.082 35.082 0 0 1 -15.042 22.455z"/><path d="m263.45 141.645a19.193 19.193 0 0 0 8.227-12.282 35.141 35.141 0 0 1 6.961-15.03 39.593 39.593 0 0 0 -7.556 3.938c-11 7.334-16.86 19.193-14.571 28z"/><path d="m269.477 260.465c3.612 3.179 8.876 4.264 14.823 3.056 6.758-1.374 13.388-5.434 18.667-11.434s8.464-13.092 8.967-19.97c.059-.816.072-1.611.052-2.389l-2.266 2.572a35.082 35.082 0 0 1 -24.261 11.913 19.194 19.194 0 0 0 -13.269 6.516l-5.5 6.247a13.46 13.46 0 0 0 2.787 3.489z"/><path d="m72 448h368v-96h-368zm320-80a32 32 0 1 1 -32 32 32.036 32.036 0 0 1 32-32zm-224 8a8 8 0 0 1 8-8h160a8 8 0 0 1 8 8v48a8 8 0 0 1 -8 8h-160a8 8 0 0 1 -8-8zm-48-8a32 32 0 1 1 -32 32 32.036 32.036 0 0 1 32-32z"/><circle cx="120" cy="400" r="16"/><path d="m96 320h320v16h-320z"/><path d="m384 464h32v16h-32z"/><path d="m440 280h-368v24h368.01z"/><circle cx="392" cy="400" r="16"/><path d="m184 384h144v32h-144z"/></g></svg>