<?xml version="1.0" encoding="iso-8859-1"?>
<!-- Generator: Adobe Illustrator 19.0.0, SVG Export Plug-In . SVG Version: 6.00 Build 0)  -->
<svg version="1.1" id="Layer_1" xmlns="http://www.w3.org/2000/svg" xmlns:xlink="http://www.w3.org/1999/xlink" x="0px" y="0px"
	 viewBox="0 0 511.999 511.999" style="enable-background:new 0 0 511.999 511.999;" xml:space="preserve">
<g>
	<g>
		<rect x="9.952" y="363.357" width="33.391" height="58.246"/>
	</g>
</g>
<g>
	<g>
		<rect x="103.713" y="363.357" width="33.391" height="58.246"/>
	</g>
</g>
<g>
	<g>
		<rect x="56.832" y="363.357" width="33.391" height="96.968"/>
	</g>
</g>
<g>
	<g>
		<rect x="375.24" y="363.357" width="33.391" height="58.246"/>
	</g>
</g>
<g>
	<g>
		<rect x="469.003" y="363.357" width="33.391" height="58.246"/>
	</g>
</g>
<g>
	<g>
		<rect x="422.122" y="363.357" width="33.391" height="96.968"/>
	</g>
</g>
<g>
	<g>
		<path d="M501.951,256.828c-0.975-8.334-4.078-23.805-13.941-39.476c-12.827-20.381-39.592-44.674-94.263-44.674
			c-27.533,0-49.518-7.137-68.415-16.929l-40.447,48.738l-25.627-21.267l37.478-45.161c-2.455-1.715-4.871-3.434-7.255-5.143
			l-39.582,47.695l-25.627-21.267l37.613-45.323c-7.191-4.307-14.444-7.876-21.947-10.1c-1.325-16.283-6.451-33.781-20.591-44.176
			c-8.673-6.374-23.87-12.251-47.031-4.057c-23.162,8.195-31.259,22.318-33.973,32.721c-2.979,11.414-0.75,22.757,3.842,33.065
			c-10.478-1.89-19.118-6.495-28.135-11.315c-16.211-8.668-36.389-19.455-64.446-8.353c-25.843,10.226-35.895,39.94-39.573,70.873
			H25.67c8.487-0.88,57.047-4.414,91.132,25.52c18.808,16.518,29.535,39.627,31.984,68.815l327.451,12.241
			c1.379,0.051,2.46,1.148,2.46,2.499v13.644c0,1.378-1.145,2.499-2.553,2.499H35.856c-1.408,0-2.554-1.121-2.554-2.499v-30.104
			c0-0.865,0.414-1.445,0.761-1.78c0.345-0.333,0.93-0.72,1.772-0.72c0.032,0,0.067,0,0.101,0.002l79.223,2.962
			c-2.282-18.378-9.084-32.656-20.333-42.535c-25.061-22.01-65.671-17.432-66.072-17.379l-1.07,0.139H8.096
			c-0.1,10.251,0.159,19.843,0.381,28.005c0.08,2.952,0.153,5.638,0.194,7.968C3.06,248.438,0,256.605,0,265.291v30.104
			c0,19.741,16.085,35.801,35.856,35.801h440.288c19.771,0,35.856-16.06,35.856-35.801v-13.644
			C512,272.053,508.189,263.269,501.951,256.828z"/>
	</g>
</g>
<g>
	<g>
		<rect x="192.601" y="363.357" width="33.391" height="58.246"/>
	</g>
</g>
<g>
	<g>
		<rect x="286.364" y="363.357" width="33.391" height="58.246"/>
	</g>
</g>
<g>
	<g>
		<rect x="239.482" y="363.357" width="33.391" height="96.968"/>
	</g>
</g>
<g>
</g>
<g>
</g>
<g>
</g>
<g>
</g>
<g>
</g>
<g>
</g>
<g>
</g>
<g>
</g>
<g>
</g>
<g>
</g>
<g>
</g>
<g>
</g>
<g>
</g>
<g>
</g>
<g>
</g>
</svg>
